%TF.GenerationSoftware,KiCad,Pcbnew,6.0.2+dfsg-1*%
%TF.CreationDate,2024-08-03T19:21:51-04:00*%
%TF.ProjectId,elpixel,656c7069-7865-46c2-9e6b-696361645f70,rev?*%
%TF.SameCoordinates,Original*%
%TF.FileFunction,Copper,L2,Bot*%
%TF.FilePolarity,Positive*%
%FSLAX46Y46*%
G04 Gerber Fmt 4.6, Leading zero omitted, Abs format (unit mm)*
G04 Created by KiCad (PCBNEW 6.0.2+dfsg-1) date 2024-08-03 19:21:51*
%MOMM*%
%LPD*%
G01*
G04 APERTURE LIST*
%TA.AperFunction,ComponentPad*%
%ADD10R,0.850000X0.850000*%
%TD*%
%TA.AperFunction,ComponentPad*%
%ADD11O,0.850000X0.850000*%
%TD*%
%TA.AperFunction,ViaPad*%
%ADD12C,0.800000*%
%TD*%
G04 APERTURE END LIST*
D10*
%TO.P,INV,1,Pin_1*%
%TO.N,Net-(J1-Pad1)*%
X109000000Y-135000000D03*
D11*
%TO.P,INV,2,Pin_2*%
%TO.N,GND*%
X109000000Y-136000000D03*
%TD*%
D10*
%TO.P,IO,1,Pin_1*%
%TO.N,Net-(U2-Pad6)*%
X125000000Y-136500000D03*
D11*
%TO.P,IO,2,Pin_2*%
%TO.N,Net-(U2-Pad5)*%
X125000000Y-137500000D03*
%TO.P,IO,3,Pin_3*%
%TO.N,+12V*%
X125000000Y-138500000D03*
%TO.P,IO,4,Pin_4*%
%TO.N,GND*%
X125000000Y-139500000D03*
%TD*%
D12*
%TO.N,GND*%
X110000000Y-139000000D03*
X115000000Y-134000000D03*
%TD*%
%TA.AperFunction,Conductor*%
%TO.N,GND*%
G36*
X126434121Y-129528002D02*
G01*
X126480614Y-129581658D01*
X126492000Y-129634000D01*
X126492000Y-142366000D01*
X126471998Y-142434121D01*
X126418342Y-142480614D01*
X126366000Y-142492000D01*
X107634000Y-142492000D01*
X107565879Y-142471998D01*
X107519386Y-142418342D01*
X107508000Y-142366000D01*
X107508000Y-139765000D01*
X124105090Y-139765000D01*
X124140927Y-139875296D01*
X124146267Y-139887291D01*
X124237730Y-140045709D01*
X124245446Y-140056328D01*
X124367843Y-140192265D01*
X124377606Y-140201056D01*
X124525588Y-140308571D01*
X124536960Y-140315137D01*
X124704068Y-140389538D01*
X124716556Y-140393595D01*
X124728280Y-140396088D01*
X124742341Y-140395015D01*
X124746000Y-140385059D01*
X124746000Y-140381739D01*
X125254000Y-140381739D01*
X125257973Y-140395270D01*
X125268468Y-140396779D01*
X125283444Y-140393595D01*
X125295932Y-140389538D01*
X125463040Y-140315137D01*
X125474412Y-140308571D01*
X125622394Y-140201056D01*
X125632157Y-140192265D01*
X125754554Y-140056328D01*
X125762270Y-140045709D01*
X125853733Y-139887291D01*
X125859073Y-139875296D01*
X125892885Y-139771232D01*
X125893288Y-139757132D01*
X125886917Y-139754000D01*
X125272115Y-139754000D01*
X125256876Y-139758475D01*
X125255671Y-139759865D01*
X125254000Y-139767548D01*
X125254000Y-140381739D01*
X124746000Y-140381739D01*
X124746000Y-139772115D01*
X124741525Y-139756876D01*
X124740135Y-139755671D01*
X124732452Y-139754000D01*
X124119631Y-139754000D01*
X124106100Y-139757973D01*
X124105090Y-139765000D01*
X107508000Y-139765000D01*
X107508000Y-138500000D01*
X124061358Y-138500000D01*
X124081870Y-138695155D01*
X124142508Y-138881780D01*
X124145811Y-138887502D01*
X124145812Y-138887503D01*
X124174678Y-138937500D01*
X124191416Y-139006495D01*
X124174678Y-139063501D01*
X124146266Y-139112712D01*
X124140927Y-139124704D01*
X124107115Y-139228768D01*
X124106712Y-139242868D01*
X124113083Y-139246000D01*
X124397676Y-139246000D01*
X124465797Y-139266002D01*
X124471736Y-139270063D01*
X124530679Y-139312888D01*
X124536707Y-139315572D01*
X124536709Y-139315573D01*
X124703913Y-139390017D01*
X124709944Y-139392702D01*
X124805914Y-139413101D01*
X124895428Y-139432128D01*
X124895432Y-139432128D01*
X124901885Y-139433500D01*
X125098115Y-139433500D01*
X125104568Y-139432128D01*
X125104572Y-139432128D01*
X125194086Y-139413101D01*
X125290056Y-139392702D01*
X125296087Y-139390017D01*
X125463291Y-139315573D01*
X125463293Y-139315572D01*
X125469321Y-139312888D01*
X125528263Y-139270064D01*
X125595131Y-139246206D01*
X125602324Y-139246000D01*
X125880369Y-139246000D01*
X125893900Y-139242027D01*
X125894910Y-139235000D01*
X125859073Y-139124704D01*
X125853734Y-139112712D01*
X125825322Y-139063501D01*
X125808584Y-138994506D01*
X125825322Y-138937500D01*
X125854188Y-138887503D01*
X125854189Y-138887502D01*
X125857492Y-138881780D01*
X125918130Y-138695155D01*
X125938642Y-138500000D01*
X125918130Y-138304845D01*
X125857492Y-138118220D01*
X125825611Y-138063000D01*
X125808873Y-137994004D01*
X125825611Y-137937000D01*
X125854188Y-137887503D01*
X125854189Y-137887502D01*
X125857492Y-137881780D01*
X125918130Y-137695155D01*
X125938642Y-137500000D01*
X125918130Y-137304845D01*
X125916089Y-137298563D01*
X125888833Y-137214675D01*
X125886806Y-137143708D01*
X125890684Y-137131511D01*
X125923971Y-137042718D01*
X125923973Y-137042712D01*
X125926745Y-137035316D01*
X125933500Y-136973134D01*
X125933500Y-136026866D01*
X125926745Y-135964684D01*
X125875615Y-135828295D01*
X125788261Y-135711739D01*
X125671705Y-135624385D01*
X125535316Y-135573255D01*
X125473134Y-135566500D01*
X124526866Y-135566500D01*
X124464684Y-135573255D01*
X124328295Y-135624385D01*
X124211739Y-135711739D01*
X124124385Y-135828295D01*
X124073255Y-135964684D01*
X124066500Y-136026866D01*
X124066500Y-136973134D01*
X124073255Y-137035316D01*
X124076027Y-137042712D01*
X124076029Y-137042718D01*
X124109316Y-137131511D01*
X124114499Y-137202318D01*
X124111167Y-137214675D01*
X124083911Y-137298563D01*
X124081870Y-137304845D01*
X124061358Y-137500000D01*
X124081870Y-137695155D01*
X124142508Y-137881780D01*
X124145811Y-137887502D01*
X124145812Y-137887503D01*
X124174389Y-137937000D01*
X124191127Y-138005996D01*
X124174389Y-138063000D01*
X124142508Y-138118220D01*
X124081870Y-138304845D01*
X124061358Y-138500000D01*
X107508000Y-138500000D01*
X107508000Y-136265000D01*
X108105090Y-136265000D01*
X108140927Y-136375296D01*
X108146267Y-136387291D01*
X108237730Y-136545709D01*
X108245446Y-136556328D01*
X108367843Y-136692265D01*
X108377606Y-136701056D01*
X108525588Y-136808571D01*
X108536960Y-136815137D01*
X108704068Y-136889538D01*
X108716556Y-136893595D01*
X108728280Y-136896088D01*
X108742341Y-136895015D01*
X108746000Y-136885059D01*
X108746000Y-136881739D01*
X109254000Y-136881739D01*
X109257973Y-136895270D01*
X109268468Y-136896779D01*
X109283444Y-136893595D01*
X109295932Y-136889538D01*
X109463040Y-136815137D01*
X109474412Y-136808571D01*
X109622394Y-136701056D01*
X109632157Y-136692265D01*
X109754554Y-136556328D01*
X109762270Y-136545709D01*
X109853733Y-136387291D01*
X109859073Y-136375296D01*
X109892885Y-136271232D01*
X109893288Y-136257132D01*
X109886917Y-136254000D01*
X109272115Y-136254000D01*
X109256876Y-136258475D01*
X109255671Y-136259865D01*
X109254000Y-136267548D01*
X109254000Y-136881739D01*
X108746000Y-136881739D01*
X108746000Y-136272115D01*
X108741525Y-136256876D01*
X108740135Y-136255671D01*
X108732452Y-136254000D01*
X108119631Y-136254000D01*
X108106100Y-136257973D01*
X108105090Y-136265000D01*
X107508000Y-136265000D01*
X107508000Y-135473134D01*
X108066500Y-135473134D01*
X108073255Y-135535316D01*
X108084946Y-135566500D01*
X108109598Y-135632260D01*
X108114781Y-135703067D01*
X108111450Y-135715425D01*
X108107114Y-135728770D01*
X108106712Y-135742866D01*
X108113085Y-135746000D01*
X108119087Y-135746000D01*
X108187208Y-135766002D01*
X108207028Y-135781975D01*
X108211739Y-135788261D01*
X108328295Y-135875615D01*
X108464684Y-135926745D01*
X108526866Y-135933500D01*
X109473134Y-135933500D01*
X109535316Y-135926745D01*
X109671705Y-135875615D01*
X109788261Y-135788261D01*
X109792592Y-135782482D01*
X109854130Y-135748879D01*
X109880054Y-135746092D01*
X109893900Y-135742027D01*
X109894910Y-135735000D01*
X109888550Y-135715425D01*
X109886524Y-135644457D01*
X109890402Y-135632260D01*
X109915055Y-135566500D01*
X109926745Y-135535316D01*
X109933500Y-135473134D01*
X109933500Y-134526866D01*
X109926745Y-134464684D01*
X109875615Y-134328295D01*
X109788261Y-134211739D01*
X109671705Y-134124385D01*
X109535316Y-134073255D01*
X109473134Y-134066500D01*
X108526866Y-134066500D01*
X108464684Y-134073255D01*
X108328295Y-134124385D01*
X108211739Y-134211739D01*
X108124385Y-134328295D01*
X108073255Y-134464684D01*
X108066500Y-134526866D01*
X108066500Y-135473134D01*
X107508000Y-135473134D01*
X107508000Y-129634000D01*
X107528002Y-129565879D01*
X107581658Y-129519386D01*
X107634000Y-129508000D01*
X126366000Y-129508000D01*
X126434121Y-129528002D01*
G37*
%TD.AperFunction*%
%TD*%
M02*
