G04 #@! TF.GenerationSoftware,KiCad,Pcbnew,5.1.5+dfsg1-2build2*
G04 #@! TF.CreationDate,2022-04-06T15:29:18-04:00*
G04 #@! TF.ProjectId,elpixel,656c7069-7865-46c2-9e6b-696361645f70,rev?*
G04 #@! TF.SameCoordinates,Original*
G04 #@! TF.FileFunction,Legend,Top*
G04 #@! TF.FilePolarity,Positive*
%FSLAX46Y46*%
G04 Gerber Fmt 4.6, Leading zero omitted, Abs format (unit mm)*
G04 Created by KiCad (PCBNEW 5.1.5+dfsg1-2build2) date 2022-04-06 15:29:18*
%MOMM*%
%LPD*%
G04 APERTURE LIST*
%ADD10C,0.120000*%
%ADD11C,0.300000*%
%ADD12C,0.200000*%
%ADD13C,0.254000*%
%ADD14C,0.150000*%
G04 APERTURE END LIST*
D10*
X161925000Y-101600000D02*
X160655000Y-100330000D01*
X161925000Y-101600000D02*
X160655000Y-102870000D01*
X152400000Y-101600000D02*
X161925000Y-101600000D01*
X142240000Y-101600000D02*
X140970000Y-100330000D01*
X142240000Y-101600000D02*
X140970000Y-102870000D01*
X139700000Y-101600000D02*
X142240000Y-101600000D01*
D11*
X145685714Y-94507857D02*
X146185714Y-94507857D01*
X146400000Y-95293571D02*
X145685714Y-95293571D01*
X145685714Y-93793571D01*
X146400000Y-93793571D01*
X147757142Y-95293571D02*
X147042857Y-95293571D01*
X147042857Y-93793571D01*
X149400000Y-95293571D02*
X149400000Y-93793571D01*
X150114285Y-95293571D02*
X150114285Y-93793571D01*
X150971428Y-95293571D01*
X150971428Y-93793571D01*
X151471428Y-93793571D02*
X151971428Y-95293571D01*
X152471428Y-93793571D01*
X152971428Y-94507857D02*
X153471428Y-94507857D01*
X153685714Y-95293571D02*
X152971428Y-95293571D01*
X152971428Y-93793571D01*
X153685714Y-93793571D01*
X155185714Y-95293571D02*
X154685714Y-94579285D01*
X154328571Y-95293571D02*
X154328571Y-93793571D01*
X154900000Y-93793571D01*
X155042857Y-93865000D01*
X155114285Y-93936428D01*
X155185714Y-94079285D01*
X155185714Y-94293571D01*
X155114285Y-94436428D01*
X155042857Y-94507857D01*
X154900000Y-94579285D01*
X154328571Y-94579285D01*
X155614285Y-93793571D02*
X156471428Y-93793571D01*
X156042857Y-95293571D02*
X156042857Y-93793571D01*
X156971428Y-94507857D02*
X157471428Y-94507857D01*
X157685714Y-95293571D02*
X156971428Y-95293571D01*
X156971428Y-93793571D01*
X157685714Y-93793571D01*
X159185714Y-95293571D02*
X158685714Y-94579285D01*
X158328571Y-95293571D02*
X158328571Y-93793571D01*
X158900000Y-93793571D01*
X159042857Y-93865000D01*
X159114285Y-93936428D01*
X159185714Y-94079285D01*
X159185714Y-94293571D01*
X159114285Y-94436428D01*
X159042857Y-94507857D01*
X158900000Y-94579285D01*
X158328571Y-94579285D01*
D12*
X145720000Y-99150000D02*
X148920000Y-99150000D01*
X148920000Y-99150000D02*
X148920000Y-104050000D01*
X148920000Y-104050000D02*
X145720000Y-104050000D01*
X145720000Y-104050000D02*
X145720000Y-99150000D01*
X143845000Y-98995000D02*
X145370000Y-98995000D01*
D10*
X135830000Y-97730000D02*
X137160000Y-97730000D01*
X135830000Y-99060000D02*
X135830000Y-97730000D01*
X135830000Y-100330000D02*
X138490000Y-100330000D01*
X138490000Y-100330000D02*
X138490000Y-105470000D01*
X135830000Y-100330000D02*
X135830000Y-105470000D01*
X135830000Y-105470000D02*
X138490000Y-105470000D01*
X144840000Y-96580000D02*
X144840000Y-93920000D01*
X142240000Y-96580000D02*
X144840000Y-96580000D01*
X142240000Y-93920000D02*
X144840000Y-93920000D01*
X142240000Y-96580000D02*
X142240000Y-93920000D01*
X140970000Y-96580000D02*
X139640000Y-96580000D01*
X139640000Y-96580000D02*
X139640000Y-95250000D01*
X163770000Y-106025001D02*
X166430000Y-106025001D01*
X163770000Y-100885001D02*
X163770000Y-106025001D01*
X166430000Y-100885001D02*
X166430000Y-106025001D01*
X163770000Y-100885001D02*
X166430000Y-100885001D01*
X163770000Y-99615001D02*
X163770000Y-98285001D01*
X163770000Y-98285001D02*
X165100000Y-98285001D01*
X156226252Y-98350000D02*
X155703748Y-98350000D01*
X156226252Y-99770000D02*
X155703748Y-99770000D01*
X156226252Y-104850000D02*
X155703748Y-104850000D01*
X156226252Y-103430000D02*
X155703748Y-103430000D01*
D13*
X146080238Y-102174523D02*
X146080238Y-100904523D01*
X147410714Y-102053571D02*
X147350238Y-102114047D01*
X147168809Y-102174523D01*
X147047857Y-102174523D01*
X146866428Y-102114047D01*
X146745476Y-101993095D01*
X146685000Y-101872142D01*
X146624523Y-101630238D01*
X146624523Y-101448809D01*
X146685000Y-101206904D01*
X146745476Y-101085952D01*
X146866428Y-100965000D01*
X147047857Y-100904523D01*
X147168809Y-100904523D01*
X147350238Y-100965000D01*
X147410714Y-101025476D01*
X148620238Y-102174523D02*
X147894523Y-102174523D01*
X148257380Y-102174523D02*
X148257380Y-100904523D01*
X148136428Y-101085952D01*
X148015476Y-101206904D01*
X147894523Y-101267380D01*
D14*
X136826666Y-96182380D02*
X136826666Y-96896666D01*
X136779047Y-97039523D01*
X136683809Y-97134761D01*
X136540952Y-97182380D01*
X136445714Y-97182380D01*
X137826666Y-97182380D02*
X137255238Y-97182380D01*
X137540952Y-97182380D02*
X137540952Y-96182380D01*
X137445714Y-96325238D01*
X137350476Y-96420476D01*
X137255238Y-96468095D01*
X138092380Y-95583333D02*
X138806666Y-95583333D01*
X138949523Y-95630952D01*
X139044761Y-95726190D01*
X139092380Y-95869047D01*
X139092380Y-95964285D01*
X138187619Y-95154761D02*
X138140000Y-95107142D01*
X138092380Y-95011904D01*
X138092380Y-94773809D01*
X138140000Y-94678571D01*
X138187619Y-94630952D01*
X138282857Y-94583333D01*
X138378095Y-94583333D01*
X138520952Y-94630952D01*
X139092380Y-95202380D01*
X139092380Y-94583333D01*
X164766666Y-96737381D02*
X164766666Y-97451667D01*
X164719047Y-97594524D01*
X164623809Y-97689762D01*
X164480952Y-97737381D01*
X164385714Y-97737381D01*
X165147619Y-96737381D02*
X165766666Y-96737381D01*
X165433333Y-97118334D01*
X165576190Y-97118334D01*
X165671428Y-97165953D01*
X165719047Y-97213572D01*
X165766666Y-97308810D01*
X165766666Y-97546905D01*
X165719047Y-97642143D01*
X165671428Y-97689762D01*
X165576190Y-97737381D01*
X165290476Y-97737381D01*
X165195238Y-97689762D01*
X165147619Y-97642143D01*
X155798333Y-101162380D02*
X155465000Y-100686190D01*
X155226904Y-101162380D02*
X155226904Y-100162380D01*
X155607857Y-100162380D01*
X155703095Y-100210000D01*
X155750714Y-100257619D01*
X155798333Y-100352857D01*
X155798333Y-100495714D01*
X155750714Y-100590952D01*
X155703095Y-100638571D01*
X155607857Y-100686190D01*
X155226904Y-100686190D01*
X156750714Y-101162380D02*
X156179285Y-101162380D01*
X156465000Y-101162380D02*
X156465000Y-100162380D01*
X156369761Y-100305238D01*
X156274523Y-100400476D01*
X156179285Y-100448095D01*
X155798333Y-106242380D02*
X155465000Y-105766190D01*
X155226904Y-106242380D02*
X155226904Y-105242380D01*
X155607857Y-105242380D01*
X155703095Y-105290000D01*
X155750714Y-105337619D01*
X155798333Y-105432857D01*
X155798333Y-105575714D01*
X155750714Y-105670952D01*
X155703095Y-105718571D01*
X155607857Y-105766190D01*
X155226904Y-105766190D01*
X156179285Y-105337619D02*
X156226904Y-105290000D01*
X156322142Y-105242380D01*
X156560238Y-105242380D01*
X156655476Y-105290000D01*
X156703095Y-105337619D01*
X156750714Y-105432857D01*
X156750714Y-105528095D01*
X156703095Y-105670952D01*
X156131666Y-106242380D01*
X156750714Y-106242380D01*
M02*
