G04 #@! TF.GenerationSoftware,KiCad,Pcbnew,5.1.5+dfsg1-2build2*
G04 #@! TF.CreationDate,2022-04-06T15:29:18-04:00*
G04 #@! TF.ProjectId,elpixel,656c7069-7865-46c2-9e6b-696361645f70,rev?*
G04 #@! TF.SameCoordinates,Original*
G04 #@! TF.FileFunction,Copper,L2,Bot*
G04 #@! TF.FilePolarity,Positive*
%FSLAX46Y46*%
G04 Gerber Fmt 4.6, Leading zero omitted, Abs format (unit mm)*
G04 Created by KiCad (PCBNEW 5.1.5+dfsg1-2build2) date 2022-04-06 15:29:18*
%MOMM*%
%LPD*%
G04 APERTURE LIST*
%ADD10O,1.700000X1.700000*%
%ADD11R,1.700000X1.700000*%
%ADD12C,0.800000*%
%ADD13C,0.254000*%
G04 APERTURE END LIST*
D10*
X137160000Y-104140000D03*
X137160000Y-101600000D03*
D11*
X137160000Y-99060000D03*
X140970000Y-95250000D03*
D10*
X143510000Y-95250000D03*
D11*
X165100000Y-99615001D03*
D10*
X165100000Y-102155001D03*
X165100000Y-104695001D03*
D12*
X142875000Y-103505000D03*
D13*
G36*
X166878000Y-105918000D02*
G01*
X165942582Y-105918000D01*
X166046632Y-105848476D01*
X166253475Y-105641633D01*
X166415990Y-105398412D01*
X166527932Y-105128159D01*
X166585000Y-104841261D01*
X166585000Y-104548741D01*
X166527932Y-104261843D01*
X166415990Y-103991590D01*
X166253475Y-103748369D01*
X166046632Y-103541526D01*
X165872240Y-103425001D01*
X166046632Y-103308476D01*
X166253475Y-103101633D01*
X166415990Y-102858412D01*
X166527932Y-102588159D01*
X166585000Y-102301261D01*
X166585000Y-102008741D01*
X166527932Y-101721843D01*
X166415990Y-101451590D01*
X166253475Y-101208369D01*
X166121620Y-101076514D01*
X166194180Y-101054503D01*
X166304494Y-100995538D01*
X166401185Y-100916186D01*
X166480537Y-100819495D01*
X166539502Y-100709181D01*
X166575812Y-100589483D01*
X166588072Y-100465001D01*
X166585000Y-99900751D01*
X166426250Y-99742001D01*
X165227000Y-99742001D01*
X165227000Y-99762001D01*
X164973000Y-99762001D01*
X164973000Y-99742001D01*
X163773750Y-99742001D01*
X163615000Y-99900751D01*
X163611928Y-100465001D01*
X163624188Y-100589483D01*
X163660498Y-100709181D01*
X163719463Y-100819495D01*
X163798815Y-100916186D01*
X163895506Y-100995538D01*
X164005820Y-101054503D01*
X164078380Y-101076514D01*
X163946525Y-101208369D01*
X163784010Y-101451590D01*
X163672068Y-101721843D01*
X163615000Y-102008741D01*
X163615000Y-102301261D01*
X163672068Y-102588159D01*
X163784010Y-102858412D01*
X163946525Y-103101633D01*
X164153368Y-103308476D01*
X164327760Y-103425001D01*
X164153368Y-103541526D01*
X163946525Y-103748369D01*
X163784010Y-103991590D01*
X163672068Y-104261843D01*
X163615000Y-104548741D01*
X163615000Y-104841261D01*
X163672068Y-105128159D01*
X163784010Y-105398412D01*
X163946525Y-105641633D01*
X164153368Y-105848476D01*
X164257418Y-105918000D01*
X135382000Y-105918000D01*
X135382000Y-104496890D01*
X135718524Y-104496890D01*
X135763175Y-104644099D01*
X135888359Y-104906920D01*
X136062412Y-105140269D01*
X136278645Y-105335178D01*
X136528748Y-105484157D01*
X136803109Y-105581481D01*
X137033000Y-105460814D01*
X137033000Y-104267000D01*
X137287000Y-104267000D01*
X137287000Y-105460814D01*
X137516891Y-105581481D01*
X137791252Y-105484157D01*
X138041355Y-105335178D01*
X138257588Y-105140269D01*
X138431641Y-104906920D01*
X138556825Y-104644099D01*
X138601476Y-104496890D01*
X138480155Y-104267000D01*
X137287000Y-104267000D01*
X137033000Y-104267000D01*
X135839845Y-104267000D01*
X135718524Y-104496890D01*
X135382000Y-104496890D01*
X135382000Y-98210000D01*
X135671928Y-98210000D01*
X135671928Y-99910000D01*
X135684188Y-100034482D01*
X135720498Y-100154180D01*
X135779463Y-100264494D01*
X135858815Y-100361185D01*
X135955506Y-100440537D01*
X136065820Y-100499502D01*
X136138380Y-100521513D01*
X136006525Y-100653368D01*
X135844010Y-100896589D01*
X135732068Y-101166842D01*
X135675000Y-101453740D01*
X135675000Y-101746260D01*
X135732068Y-102033158D01*
X135844010Y-102303411D01*
X136006525Y-102546632D01*
X136213368Y-102753475D01*
X136395534Y-102875195D01*
X136278645Y-102944822D01*
X136062412Y-103139731D01*
X135888359Y-103373080D01*
X135763175Y-103635901D01*
X135718524Y-103783110D01*
X135839845Y-104013000D01*
X137033000Y-104013000D01*
X137033000Y-103993000D01*
X137287000Y-103993000D01*
X137287000Y-104013000D01*
X138480155Y-104013000D01*
X138601476Y-103783110D01*
X138556825Y-103635901D01*
X138431641Y-103373080D01*
X138257588Y-103139731D01*
X138041355Y-102944822D01*
X137924466Y-102875195D01*
X138106632Y-102753475D01*
X138313475Y-102546632D01*
X138475990Y-102303411D01*
X138587932Y-102033158D01*
X138645000Y-101746260D01*
X138645000Y-101453740D01*
X138587932Y-101166842D01*
X138475990Y-100896589D01*
X138313475Y-100653368D01*
X138181620Y-100521513D01*
X138254180Y-100499502D01*
X138364494Y-100440537D01*
X138461185Y-100361185D01*
X138540537Y-100264494D01*
X138599502Y-100154180D01*
X138635812Y-100034482D01*
X138648072Y-99910000D01*
X138648072Y-98765001D01*
X163611928Y-98765001D01*
X163615000Y-99329251D01*
X163773750Y-99488001D01*
X164973000Y-99488001D01*
X164973000Y-98288751D01*
X165227000Y-98288751D01*
X165227000Y-99488001D01*
X166426250Y-99488001D01*
X166585000Y-99329251D01*
X166588072Y-98765001D01*
X166575812Y-98640519D01*
X166539502Y-98520821D01*
X166480537Y-98410507D01*
X166401185Y-98313816D01*
X166304494Y-98234464D01*
X166194180Y-98175499D01*
X166074482Y-98139189D01*
X165950000Y-98126929D01*
X165385750Y-98130001D01*
X165227000Y-98288751D01*
X164973000Y-98288751D01*
X164814250Y-98130001D01*
X164250000Y-98126929D01*
X164125518Y-98139189D01*
X164005820Y-98175499D01*
X163895506Y-98234464D01*
X163798815Y-98313816D01*
X163719463Y-98410507D01*
X163660498Y-98520821D01*
X163624188Y-98640519D01*
X163611928Y-98765001D01*
X138648072Y-98765001D01*
X138648072Y-98210000D01*
X138635812Y-98085518D01*
X138599502Y-97965820D01*
X138540537Y-97855506D01*
X138461185Y-97758815D01*
X138364494Y-97679463D01*
X138254180Y-97620498D01*
X138134482Y-97584188D01*
X138010000Y-97571928D01*
X136310000Y-97571928D01*
X136185518Y-97584188D01*
X136065820Y-97620498D01*
X135955506Y-97679463D01*
X135858815Y-97758815D01*
X135779463Y-97855506D01*
X135720498Y-97965820D01*
X135684188Y-98085518D01*
X135671928Y-98210000D01*
X135382000Y-98210000D01*
X135382000Y-96100000D01*
X139481928Y-96100000D01*
X139494188Y-96224482D01*
X139530498Y-96344180D01*
X139589463Y-96454494D01*
X139668815Y-96551185D01*
X139765506Y-96630537D01*
X139875820Y-96689502D01*
X139995518Y-96725812D01*
X140120000Y-96738072D01*
X140684250Y-96735000D01*
X140843000Y-96576250D01*
X140843000Y-95377000D01*
X139643750Y-95377000D01*
X139485000Y-95535750D01*
X139481928Y-96100000D01*
X135382000Y-96100000D01*
X135382000Y-94400000D01*
X139481928Y-94400000D01*
X139485000Y-94964250D01*
X139643750Y-95123000D01*
X140843000Y-95123000D01*
X140843000Y-93923750D01*
X141097000Y-93923750D01*
X141097000Y-95123000D01*
X141117000Y-95123000D01*
X141117000Y-95377000D01*
X141097000Y-95377000D01*
X141097000Y-96576250D01*
X141255750Y-96735000D01*
X141820000Y-96738072D01*
X141944482Y-96725812D01*
X142064180Y-96689502D01*
X142174494Y-96630537D01*
X142271185Y-96551185D01*
X142350537Y-96454494D01*
X142409502Y-96344180D01*
X142431513Y-96271620D01*
X142563368Y-96403475D01*
X142806589Y-96565990D01*
X143076842Y-96677932D01*
X143363740Y-96735000D01*
X143656260Y-96735000D01*
X143943158Y-96677932D01*
X144213411Y-96565990D01*
X144456632Y-96403475D01*
X144663475Y-96196632D01*
X144825990Y-95953411D01*
X144937932Y-95683158D01*
X144995000Y-95396260D01*
X144995000Y-95103740D01*
X144937932Y-94816842D01*
X144825990Y-94546589D01*
X144663475Y-94303368D01*
X144456632Y-94096525D01*
X144213411Y-93934010D01*
X143943158Y-93822068D01*
X143656260Y-93765000D01*
X143363740Y-93765000D01*
X143076842Y-93822068D01*
X142806589Y-93934010D01*
X142563368Y-94096525D01*
X142431513Y-94228380D01*
X142409502Y-94155820D01*
X142350537Y-94045506D01*
X142271185Y-93948815D01*
X142174494Y-93869463D01*
X142064180Y-93810498D01*
X141944482Y-93774188D01*
X141820000Y-93761928D01*
X141255750Y-93765000D01*
X141097000Y-93923750D01*
X140843000Y-93923750D01*
X140684250Y-93765000D01*
X140120000Y-93761928D01*
X139995518Y-93774188D01*
X139875820Y-93810498D01*
X139765506Y-93869463D01*
X139668815Y-93948815D01*
X139589463Y-94045506D01*
X139530498Y-94155820D01*
X139494188Y-94275518D01*
X139481928Y-94400000D01*
X135382000Y-94400000D01*
X135382000Y-93472000D01*
X166878000Y-93472000D01*
X166878000Y-105918000D01*
G37*
X166878000Y-105918000D02*
X165942582Y-105918000D01*
X166046632Y-105848476D01*
X166253475Y-105641633D01*
X166415990Y-105398412D01*
X166527932Y-105128159D01*
X166585000Y-104841261D01*
X166585000Y-104548741D01*
X166527932Y-104261843D01*
X166415990Y-103991590D01*
X166253475Y-103748369D01*
X166046632Y-103541526D01*
X165872240Y-103425001D01*
X166046632Y-103308476D01*
X166253475Y-103101633D01*
X166415990Y-102858412D01*
X166527932Y-102588159D01*
X166585000Y-102301261D01*
X166585000Y-102008741D01*
X166527932Y-101721843D01*
X166415990Y-101451590D01*
X166253475Y-101208369D01*
X166121620Y-101076514D01*
X166194180Y-101054503D01*
X166304494Y-100995538D01*
X166401185Y-100916186D01*
X166480537Y-100819495D01*
X166539502Y-100709181D01*
X166575812Y-100589483D01*
X166588072Y-100465001D01*
X166585000Y-99900751D01*
X166426250Y-99742001D01*
X165227000Y-99742001D01*
X165227000Y-99762001D01*
X164973000Y-99762001D01*
X164973000Y-99742001D01*
X163773750Y-99742001D01*
X163615000Y-99900751D01*
X163611928Y-100465001D01*
X163624188Y-100589483D01*
X163660498Y-100709181D01*
X163719463Y-100819495D01*
X163798815Y-100916186D01*
X163895506Y-100995538D01*
X164005820Y-101054503D01*
X164078380Y-101076514D01*
X163946525Y-101208369D01*
X163784010Y-101451590D01*
X163672068Y-101721843D01*
X163615000Y-102008741D01*
X163615000Y-102301261D01*
X163672068Y-102588159D01*
X163784010Y-102858412D01*
X163946525Y-103101633D01*
X164153368Y-103308476D01*
X164327760Y-103425001D01*
X164153368Y-103541526D01*
X163946525Y-103748369D01*
X163784010Y-103991590D01*
X163672068Y-104261843D01*
X163615000Y-104548741D01*
X163615000Y-104841261D01*
X163672068Y-105128159D01*
X163784010Y-105398412D01*
X163946525Y-105641633D01*
X164153368Y-105848476D01*
X164257418Y-105918000D01*
X135382000Y-105918000D01*
X135382000Y-104496890D01*
X135718524Y-104496890D01*
X135763175Y-104644099D01*
X135888359Y-104906920D01*
X136062412Y-105140269D01*
X136278645Y-105335178D01*
X136528748Y-105484157D01*
X136803109Y-105581481D01*
X137033000Y-105460814D01*
X137033000Y-104267000D01*
X137287000Y-104267000D01*
X137287000Y-105460814D01*
X137516891Y-105581481D01*
X137791252Y-105484157D01*
X138041355Y-105335178D01*
X138257588Y-105140269D01*
X138431641Y-104906920D01*
X138556825Y-104644099D01*
X138601476Y-104496890D01*
X138480155Y-104267000D01*
X137287000Y-104267000D01*
X137033000Y-104267000D01*
X135839845Y-104267000D01*
X135718524Y-104496890D01*
X135382000Y-104496890D01*
X135382000Y-98210000D01*
X135671928Y-98210000D01*
X135671928Y-99910000D01*
X135684188Y-100034482D01*
X135720498Y-100154180D01*
X135779463Y-100264494D01*
X135858815Y-100361185D01*
X135955506Y-100440537D01*
X136065820Y-100499502D01*
X136138380Y-100521513D01*
X136006525Y-100653368D01*
X135844010Y-100896589D01*
X135732068Y-101166842D01*
X135675000Y-101453740D01*
X135675000Y-101746260D01*
X135732068Y-102033158D01*
X135844010Y-102303411D01*
X136006525Y-102546632D01*
X136213368Y-102753475D01*
X136395534Y-102875195D01*
X136278645Y-102944822D01*
X136062412Y-103139731D01*
X135888359Y-103373080D01*
X135763175Y-103635901D01*
X135718524Y-103783110D01*
X135839845Y-104013000D01*
X137033000Y-104013000D01*
X137033000Y-103993000D01*
X137287000Y-103993000D01*
X137287000Y-104013000D01*
X138480155Y-104013000D01*
X138601476Y-103783110D01*
X138556825Y-103635901D01*
X138431641Y-103373080D01*
X138257588Y-103139731D01*
X138041355Y-102944822D01*
X137924466Y-102875195D01*
X138106632Y-102753475D01*
X138313475Y-102546632D01*
X138475990Y-102303411D01*
X138587932Y-102033158D01*
X138645000Y-101746260D01*
X138645000Y-101453740D01*
X138587932Y-101166842D01*
X138475990Y-100896589D01*
X138313475Y-100653368D01*
X138181620Y-100521513D01*
X138254180Y-100499502D01*
X138364494Y-100440537D01*
X138461185Y-100361185D01*
X138540537Y-100264494D01*
X138599502Y-100154180D01*
X138635812Y-100034482D01*
X138648072Y-99910000D01*
X138648072Y-98765001D01*
X163611928Y-98765001D01*
X163615000Y-99329251D01*
X163773750Y-99488001D01*
X164973000Y-99488001D01*
X164973000Y-98288751D01*
X165227000Y-98288751D01*
X165227000Y-99488001D01*
X166426250Y-99488001D01*
X166585000Y-99329251D01*
X166588072Y-98765001D01*
X166575812Y-98640519D01*
X166539502Y-98520821D01*
X166480537Y-98410507D01*
X166401185Y-98313816D01*
X166304494Y-98234464D01*
X166194180Y-98175499D01*
X166074482Y-98139189D01*
X165950000Y-98126929D01*
X165385750Y-98130001D01*
X165227000Y-98288751D01*
X164973000Y-98288751D01*
X164814250Y-98130001D01*
X164250000Y-98126929D01*
X164125518Y-98139189D01*
X164005820Y-98175499D01*
X163895506Y-98234464D01*
X163798815Y-98313816D01*
X163719463Y-98410507D01*
X163660498Y-98520821D01*
X163624188Y-98640519D01*
X163611928Y-98765001D01*
X138648072Y-98765001D01*
X138648072Y-98210000D01*
X138635812Y-98085518D01*
X138599502Y-97965820D01*
X138540537Y-97855506D01*
X138461185Y-97758815D01*
X138364494Y-97679463D01*
X138254180Y-97620498D01*
X138134482Y-97584188D01*
X138010000Y-97571928D01*
X136310000Y-97571928D01*
X136185518Y-97584188D01*
X136065820Y-97620498D01*
X135955506Y-97679463D01*
X135858815Y-97758815D01*
X135779463Y-97855506D01*
X135720498Y-97965820D01*
X135684188Y-98085518D01*
X135671928Y-98210000D01*
X135382000Y-98210000D01*
X135382000Y-96100000D01*
X139481928Y-96100000D01*
X139494188Y-96224482D01*
X139530498Y-96344180D01*
X139589463Y-96454494D01*
X139668815Y-96551185D01*
X139765506Y-96630537D01*
X139875820Y-96689502D01*
X139995518Y-96725812D01*
X140120000Y-96738072D01*
X140684250Y-96735000D01*
X140843000Y-96576250D01*
X140843000Y-95377000D01*
X139643750Y-95377000D01*
X139485000Y-95535750D01*
X139481928Y-96100000D01*
X135382000Y-96100000D01*
X135382000Y-94400000D01*
X139481928Y-94400000D01*
X139485000Y-94964250D01*
X139643750Y-95123000D01*
X140843000Y-95123000D01*
X140843000Y-93923750D01*
X141097000Y-93923750D01*
X141097000Y-95123000D01*
X141117000Y-95123000D01*
X141117000Y-95377000D01*
X141097000Y-95377000D01*
X141097000Y-96576250D01*
X141255750Y-96735000D01*
X141820000Y-96738072D01*
X141944482Y-96725812D01*
X142064180Y-96689502D01*
X142174494Y-96630537D01*
X142271185Y-96551185D01*
X142350537Y-96454494D01*
X142409502Y-96344180D01*
X142431513Y-96271620D01*
X142563368Y-96403475D01*
X142806589Y-96565990D01*
X143076842Y-96677932D01*
X143363740Y-96735000D01*
X143656260Y-96735000D01*
X143943158Y-96677932D01*
X144213411Y-96565990D01*
X144456632Y-96403475D01*
X144663475Y-96196632D01*
X144825990Y-95953411D01*
X144937932Y-95683158D01*
X144995000Y-95396260D01*
X144995000Y-95103740D01*
X144937932Y-94816842D01*
X144825990Y-94546589D01*
X144663475Y-94303368D01*
X144456632Y-94096525D01*
X144213411Y-93934010D01*
X143943158Y-93822068D01*
X143656260Y-93765000D01*
X143363740Y-93765000D01*
X143076842Y-93822068D01*
X142806589Y-93934010D01*
X142563368Y-94096525D01*
X142431513Y-94228380D01*
X142409502Y-94155820D01*
X142350537Y-94045506D01*
X142271185Y-93948815D01*
X142174494Y-93869463D01*
X142064180Y-93810498D01*
X141944482Y-93774188D01*
X141820000Y-93761928D01*
X141255750Y-93765000D01*
X141097000Y-93923750D01*
X140843000Y-93923750D01*
X140684250Y-93765000D01*
X140120000Y-93761928D01*
X139995518Y-93774188D01*
X139875820Y-93810498D01*
X139765506Y-93869463D01*
X139668815Y-93948815D01*
X139589463Y-94045506D01*
X139530498Y-94155820D01*
X139494188Y-94275518D01*
X139481928Y-94400000D01*
X135382000Y-94400000D01*
X135382000Y-93472000D01*
X166878000Y-93472000D01*
X166878000Y-105918000D01*
M02*
