G04 #@! TF.GenerationSoftware,KiCad,Pcbnew,5.1.5+dfsg1-2build2*
G04 #@! TF.CreationDate,2022-04-06T15:29:18-04:00*
G04 #@! TF.ProjectId,elpixel,656c7069-7865-46c2-9e6b-696361645f70,rev?*
G04 #@! TF.SameCoordinates,Original*
G04 #@! TF.FileFunction,Paste,Top*
G04 #@! TF.FilePolarity,Positive*
%FSLAX46Y46*%
G04 Gerber Fmt 4.6, Leading zero omitted, Abs format (unit mm)*
G04 Created by KiCad (PCBNEW 5.1.5+dfsg1-2build2) date 2022-04-06 15:29:18*
%MOMM*%
%LPD*%
G04 APERTURE LIST*
%ADD10R,1.525000X0.700000*%
%ADD11C,0.100000*%
G04 APERTURE END LIST*
D10*
X144608000Y-99695000D03*
X144608000Y-100965000D03*
X144608000Y-102235000D03*
X144608000Y-103505000D03*
X150032000Y-103505000D03*
X150032000Y-102235000D03*
X150032000Y-100965000D03*
X150032000Y-99695000D03*
D11*
G36*
X155289505Y-98361204D02*
G01*
X155313773Y-98364804D01*
X155337572Y-98370765D01*
X155360671Y-98379030D01*
X155382850Y-98389520D01*
X155403893Y-98402132D01*
X155423599Y-98416747D01*
X155441777Y-98433223D01*
X155458253Y-98451401D01*
X155472868Y-98471107D01*
X155485480Y-98492150D01*
X155495970Y-98514329D01*
X155504235Y-98537428D01*
X155510196Y-98561227D01*
X155513796Y-98585495D01*
X155515000Y-98609999D01*
X155515000Y-99510001D01*
X155513796Y-99534505D01*
X155510196Y-99558773D01*
X155504235Y-99582572D01*
X155495970Y-99605671D01*
X155485480Y-99627850D01*
X155472868Y-99648893D01*
X155458253Y-99668599D01*
X155441777Y-99686777D01*
X155423599Y-99703253D01*
X155403893Y-99717868D01*
X155382850Y-99730480D01*
X155360671Y-99740970D01*
X155337572Y-99749235D01*
X155313773Y-99755196D01*
X155289505Y-99758796D01*
X155265001Y-99760000D01*
X154614999Y-99760000D01*
X154590495Y-99758796D01*
X154566227Y-99755196D01*
X154542428Y-99749235D01*
X154519329Y-99740970D01*
X154497150Y-99730480D01*
X154476107Y-99717868D01*
X154456401Y-99703253D01*
X154438223Y-99686777D01*
X154421747Y-99668599D01*
X154407132Y-99648893D01*
X154394520Y-99627850D01*
X154384030Y-99605671D01*
X154375765Y-99582572D01*
X154369804Y-99558773D01*
X154366204Y-99534505D01*
X154365000Y-99510001D01*
X154365000Y-98609999D01*
X154366204Y-98585495D01*
X154369804Y-98561227D01*
X154375765Y-98537428D01*
X154384030Y-98514329D01*
X154394520Y-98492150D01*
X154407132Y-98471107D01*
X154421747Y-98451401D01*
X154438223Y-98433223D01*
X154456401Y-98416747D01*
X154476107Y-98402132D01*
X154497150Y-98389520D01*
X154519329Y-98379030D01*
X154542428Y-98370765D01*
X154566227Y-98364804D01*
X154590495Y-98361204D01*
X154614999Y-98360000D01*
X155265001Y-98360000D01*
X155289505Y-98361204D01*
G37*
G36*
X157339505Y-98361204D02*
G01*
X157363773Y-98364804D01*
X157387572Y-98370765D01*
X157410671Y-98379030D01*
X157432850Y-98389520D01*
X157453893Y-98402132D01*
X157473599Y-98416747D01*
X157491777Y-98433223D01*
X157508253Y-98451401D01*
X157522868Y-98471107D01*
X157535480Y-98492150D01*
X157545970Y-98514329D01*
X157554235Y-98537428D01*
X157560196Y-98561227D01*
X157563796Y-98585495D01*
X157565000Y-98609999D01*
X157565000Y-99510001D01*
X157563796Y-99534505D01*
X157560196Y-99558773D01*
X157554235Y-99582572D01*
X157545970Y-99605671D01*
X157535480Y-99627850D01*
X157522868Y-99648893D01*
X157508253Y-99668599D01*
X157491777Y-99686777D01*
X157473599Y-99703253D01*
X157453893Y-99717868D01*
X157432850Y-99730480D01*
X157410671Y-99740970D01*
X157387572Y-99749235D01*
X157363773Y-99755196D01*
X157339505Y-99758796D01*
X157315001Y-99760000D01*
X156664999Y-99760000D01*
X156640495Y-99758796D01*
X156616227Y-99755196D01*
X156592428Y-99749235D01*
X156569329Y-99740970D01*
X156547150Y-99730480D01*
X156526107Y-99717868D01*
X156506401Y-99703253D01*
X156488223Y-99686777D01*
X156471747Y-99668599D01*
X156457132Y-99648893D01*
X156444520Y-99627850D01*
X156434030Y-99605671D01*
X156425765Y-99582572D01*
X156419804Y-99558773D01*
X156416204Y-99534505D01*
X156415000Y-99510001D01*
X156415000Y-98609999D01*
X156416204Y-98585495D01*
X156419804Y-98561227D01*
X156425765Y-98537428D01*
X156434030Y-98514329D01*
X156444520Y-98492150D01*
X156457132Y-98471107D01*
X156471747Y-98451401D01*
X156488223Y-98433223D01*
X156506401Y-98416747D01*
X156526107Y-98402132D01*
X156547150Y-98389520D01*
X156569329Y-98379030D01*
X156592428Y-98370765D01*
X156616227Y-98364804D01*
X156640495Y-98361204D01*
X156664999Y-98360000D01*
X157315001Y-98360000D01*
X157339505Y-98361204D01*
G37*
G36*
X157339505Y-103441204D02*
G01*
X157363773Y-103444804D01*
X157387572Y-103450765D01*
X157410671Y-103459030D01*
X157432850Y-103469520D01*
X157453893Y-103482132D01*
X157473599Y-103496747D01*
X157491777Y-103513223D01*
X157508253Y-103531401D01*
X157522868Y-103551107D01*
X157535480Y-103572150D01*
X157545970Y-103594329D01*
X157554235Y-103617428D01*
X157560196Y-103641227D01*
X157563796Y-103665495D01*
X157565000Y-103689999D01*
X157565000Y-104590001D01*
X157563796Y-104614505D01*
X157560196Y-104638773D01*
X157554235Y-104662572D01*
X157545970Y-104685671D01*
X157535480Y-104707850D01*
X157522868Y-104728893D01*
X157508253Y-104748599D01*
X157491777Y-104766777D01*
X157473599Y-104783253D01*
X157453893Y-104797868D01*
X157432850Y-104810480D01*
X157410671Y-104820970D01*
X157387572Y-104829235D01*
X157363773Y-104835196D01*
X157339505Y-104838796D01*
X157315001Y-104840000D01*
X156664999Y-104840000D01*
X156640495Y-104838796D01*
X156616227Y-104835196D01*
X156592428Y-104829235D01*
X156569329Y-104820970D01*
X156547150Y-104810480D01*
X156526107Y-104797868D01*
X156506401Y-104783253D01*
X156488223Y-104766777D01*
X156471747Y-104748599D01*
X156457132Y-104728893D01*
X156444520Y-104707850D01*
X156434030Y-104685671D01*
X156425765Y-104662572D01*
X156419804Y-104638773D01*
X156416204Y-104614505D01*
X156415000Y-104590001D01*
X156415000Y-103689999D01*
X156416204Y-103665495D01*
X156419804Y-103641227D01*
X156425765Y-103617428D01*
X156434030Y-103594329D01*
X156444520Y-103572150D01*
X156457132Y-103551107D01*
X156471747Y-103531401D01*
X156488223Y-103513223D01*
X156506401Y-103496747D01*
X156526107Y-103482132D01*
X156547150Y-103469520D01*
X156569329Y-103459030D01*
X156592428Y-103450765D01*
X156616227Y-103444804D01*
X156640495Y-103441204D01*
X156664999Y-103440000D01*
X157315001Y-103440000D01*
X157339505Y-103441204D01*
G37*
G36*
X155289505Y-103441204D02*
G01*
X155313773Y-103444804D01*
X155337572Y-103450765D01*
X155360671Y-103459030D01*
X155382850Y-103469520D01*
X155403893Y-103482132D01*
X155423599Y-103496747D01*
X155441777Y-103513223D01*
X155458253Y-103531401D01*
X155472868Y-103551107D01*
X155485480Y-103572150D01*
X155495970Y-103594329D01*
X155504235Y-103617428D01*
X155510196Y-103641227D01*
X155513796Y-103665495D01*
X155515000Y-103689999D01*
X155515000Y-104590001D01*
X155513796Y-104614505D01*
X155510196Y-104638773D01*
X155504235Y-104662572D01*
X155495970Y-104685671D01*
X155485480Y-104707850D01*
X155472868Y-104728893D01*
X155458253Y-104748599D01*
X155441777Y-104766777D01*
X155423599Y-104783253D01*
X155403893Y-104797868D01*
X155382850Y-104810480D01*
X155360671Y-104820970D01*
X155337572Y-104829235D01*
X155313773Y-104835196D01*
X155289505Y-104838796D01*
X155265001Y-104840000D01*
X154614999Y-104840000D01*
X154590495Y-104838796D01*
X154566227Y-104835196D01*
X154542428Y-104829235D01*
X154519329Y-104820970D01*
X154497150Y-104810480D01*
X154476107Y-104797868D01*
X154456401Y-104783253D01*
X154438223Y-104766777D01*
X154421747Y-104748599D01*
X154407132Y-104728893D01*
X154394520Y-104707850D01*
X154384030Y-104685671D01*
X154375765Y-104662572D01*
X154369804Y-104638773D01*
X154366204Y-104614505D01*
X154365000Y-104590001D01*
X154365000Y-103689999D01*
X154366204Y-103665495D01*
X154369804Y-103641227D01*
X154375765Y-103617428D01*
X154384030Y-103594329D01*
X154394520Y-103572150D01*
X154407132Y-103551107D01*
X154421747Y-103531401D01*
X154438223Y-103513223D01*
X154456401Y-103496747D01*
X154476107Y-103482132D01*
X154497150Y-103469520D01*
X154519329Y-103459030D01*
X154542428Y-103450765D01*
X154566227Y-103444804D01*
X154590495Y-103441204D01*
X154614999Y-103440000D01*
X155265001Y-103440000D01*
X155289505Y-103441204D01*
G37*
M02*
